#!OML:ASF E:\Mandelcareful walks\Project 1\Capture day 1\Session 1\Subject1.ASF
:FULLY-SPECIFIED
:DEGREES
155
root -17.8194 14.8606 -0.476588 -170.125 23.583 177.007
lowerback 35.914 1.69025 -4.54474
upperback 7.61409 2.21256 -4.39576
thorax -9.37697 2.03189 -3.30622
lowerneck -29.8186 0.781807 -3.2879
upperneck 19.1516 3.10752 -2.1133
head 11.0653 0.880579 0.296773
rclavicle -8.74653e-015 1.63003e-014
rhumerus -9.64221 16.386 -70.0443
rradius 61.5738
rwrist -17.7724
rhand -11.7443 -27.0838
rfingers 7.12502
rthumb 14.3034 -56.5711
lclavicle -8.74653e-015 1.63003e-014
lhumerus -26.2627 -21.776 80.7172
lradius 48.2552
lwrist 18.696
lhand -17.2733 -14.0267
lfingers 7.12502
lthumb 8.97166 15.7626
rfemur -30.6608 -32.7293 22.1942
rtibia 71.0292
rfoot -26.8158 0.682241
rtoes -2.09798
lfemur -57.3 2.69498 -24.2977
ltibia 56.0188
lfoot -5.95158 -1.59852
ltoes -5.95286
156
root -17.7698 14.8236 -0.603083 -169.235 23.0023 176.86
lowerback 35.16 1.11924 -3.89281
upperback 7.65695 1.69603 -4.63125
thorax -9.1922 1.76181 -3.64511
lowerneck -29.7426 0.599751 -2.87009
upperneck 18.8145 2.74799 -2.43336
head 10.9395 0.716165 0.0476548
rclavicle 3.97569e-015 2.14687e-014
rhumerus -9.82044 16.373 -70.7825
rradius 62.2575
rwrist -17.3445
rhand -11.298 -26.6953
rfingers 7.12502
rthumb 14.7334 -56.1517
lclavicle 3.97569e-015 2.14687e-014
lhumerus -24.9713 -23.4429 80.3432
lradius 48.7875
lwrist 18.1233
lhand -19.2423 -13.8783
lfingers 7.12502
lthumb 7.0713 15.9836
rfemur -32.954 -34.4702 21.8103
rtibia 73.7138
rfoot -23.47 3.22663
rtoes 9.6309
lfemur -58.4152 1.60063 -24.3272
ltibia 56.807
lfoot -6.70906 -0.988715
ltoes -4.44836
157
root -17.6765 14.8143 -0.72015 -168.833 23.3653 177.087
lowerback 34.9944 1.25491 -4.17482
upperback 7.65896 1.76664 -4.57018
thorax -9.12568 1.78969 -3.44929
lowerneck -30.1277 0.330212 -3.35418
upperneck 19.0225 2.45164 -1.85299
head 11.0668 0.612901 0.288266
rclavicle 1.59028e-014 -7.23576e-014
rhumerus -9.87311 16.4258 -71.2628
rradius 62.8561
rwrist -16.9981
rhand -10.4284 -26.244
rfingers 7.12502
rthumb 15.5711 -55.6372
lclavicle 1.59028e-014 -7.23576e-014
lhumerus -23.439 -24.411 79.729
lradius 49.8998
lwrist 18.981
lhand -18.5932 -12.237
lfingers 7.12502
lthumb 7.69778 17.6029
rfemur -34.3559 -35.1809 21.3903
rtibia 76.3681
rfoot -20.5579 4.98391
rtoes 4.60306
lfemur -58.5723 1.02027 -23.5187
ltibia 57.6792
lfoot -7.94803 0.0781684
ltoes -3.59668
158
root -17.5898 14.8038 -0.829918 -168.452 23.7718 177.257
lowerback 34.8906 1.36992 -4.45943
upperback 7.59231 1.78582 -4.58217
thorax -9.15908 1.79135 -3.31619
lowerneck -31.1868 -0.20785 -4.50134
upperneck 20.0008 1.83465 -0.193059
head 11.5894 0.438367 0.988822
rclavicle -4.17448e-014 4.85035e-014
rhumerus -9.99254 16.4894 -71.9264
rradius 63.4293
rwrist -16.9857
rhand -10.0638 -26.1754
rfingers 7.12502
rthumb 15.9222 -55.5409
lclavicle -4.17448e-014 4.85035e-014
lhumerus -21.9348 -25.2497 79.0046
lradius 50.827
lwrist 19.2819
lhand -18.6398 -12.1506
lfingers 7.12502
lthumb 7.65284 17.691
rfemur -36.2744 -35.8214 20.8033
rtibia 79.2759
rfoot -17.5283 6.51409
rtoes 5.02874
lfemur -58.7808 0.89972 -23.0328
ltibia 58.5471
lfoot -8.99346 0.698875
ltoes -4.7745
159
root -17.5075 14.7693 -0.9338 -168.265 24.1715 177.22
lowerback 35.002 1.53268 -4.75828
upperback 7.4813 1.84657 -4.66424
thorax -9.31881 1.81892 -3.27871
lowerneck -31.5153 -0.628066 -4.64224
upperneck 20.4308 1.17724 0.390543
head 11.8206 0.202733 1.11589
rclavicle -9.14409e-015 3.69739e-014
rhumerus -10.325 15.9884 -72.7664
rradius 64.019
rwrist -17.236
rhand -9.80852 -26.4796
rfingers 7.12502
rthumb 16.168 -55.8253
lclavicle -9.14409e-015 3.69739e-014
lhumerus -20.3679 -26.3561 78.2143
lradius 51.8916
lwrist 19.8254
lhand -19.2693 -12.4536
lfingers 7.12502
lthumb 7.04517 17.4091
rfemur -37.5229 -36.5481 19.8328
rtibia 81.7921
rfoot -14.7604 8.36038
rtoes 2.45039
lfemur -59.0181 1.17589 -22.9312
ltibia 59.5053
lfoot -9.85442 0.700665
ltoes -6.35407
160
root -17.4054 14.756 -1.0373 -168.708 24.9226 177.257
lowerback 35.861 1.96789 -5.51072
upperback 7.34828 2.09967 -4.55986
thorax -9.65184 1.9654 -2.94056
lowerneck -31.757 -1.06469 -5.02229
upperneck 20.8934 0.586759 1.02209
head 12.0551 -0.0118714 1.31255
rclavicle 3.18055e-015 -6.32135e-014
rhumerus -10.6032 15.637 -73.427
rradius 64.702
rwrist -17.6597
rhand -9.60625 -27.126
rfingers 7.12502
rthumb 16.3628 -56.4557
lclavicle 3.18055e-015 -6.32135e-014
lhumerus -18.7192 -27.2586 77.4233
lradius 53.095
lwrist 20.4748
lhand -20.6722 -12.704
lfingers 7.12502
lthumb 5.69081 17.1996
rfemur -37.7318 -37.0254 18.3379
rtibia 84.0905
rfoot -12.7027 9.91243
rtoes -30.0814
lfemur -58.3103 1.82688 -22.6216
ltibia 60.4435
lfoot -10.8637 0.426201
ltoes -5.5846
161
root -17.3031 14.7266 -1.13071 -168.908 25.7013 177.482
lowerback 36.3072 2.33615 -6.19833
upperback 7.32769 2.30231 -4.39387
thorax -9.83518 2.07535 -2.50716
lowerneck -31.9624 -1.42376 -5.25541
upperneck 21.4033 0.099987 1.42148
head 12.3081 -0.198846 1.4171
rclavicle -4.69132e-014 8.74653e-015
rhumerus -10.727 15.7292 -74.0462
rradius 65.3285
rwrist -17.9575
rhand -9.72036 -27.6198
rfingers 7.12502
rthumb 16.2529 -56.9586
lclavicle -4.69132e-014 8.74653e-015
lhumerus -17.0433 -27.6824 76.5007
lradius 54.3925
lwrist 20.9317
lhand -22.6443 -12.5175
lfingers 7.12502
lthumb 3.7866 17.4286
rfemur -38.331 -37.3383 17.1871
rtibia 86.1825
rfoot -11.1349 10.808
rtoes -30.1127
lfemur -57.9321 2.69164 -22.168
ltibia 61.5013
lfoot -11.9135 0.0317147
ltoes -2.84405
162
root -17.2623 14.6761 -1.21933 -168.767 25.8011 177.615
lowerback 36.6016 2.0952 -5.43124
upperback 7.22231 2.21318 -4.64267
thorax -10.0578 2.02034 -3.15755
lowerneck -32.0614 -1.97576 -5.40153
upperneck 22.1886 -0.685377 1.76834
head 12.6717 -0.517494 1.43184
rclavicle 2.94201e-014 -1.15295e-014
rhumerus -11.2598 14.8522 -74.9483
rradius 65.7844
rwrist -17.852
rhand -9.86109 -27.6002
rfingers 7.12502
rthumb 16.1174 -56.9499
lclavicle 2.94201e-014 -1.15295e-014
lhumerus -15.2762 -28.8289 75.3258
lradius 55.8459
lwrist 21.6475
lhand -23.5669 -12.55
lfingers 7.12502
lthumb 2.89562 17.4101
rfemur -39.7533 -38.3952 16.0913
rtibia 87.8813
rfoot -10.7871 7.25837
rtoes -32.4381
lfemur -58.2645 2.23631 -21.763
ltibia 62.5095
lfoot -12.8701 0.63628
ltoes -2.68948
163
root -17.1978 14.628 -1.29695 -168.615 25.9102 177.584
lowerback 36.5513 1.83434 -5.53273
upperback 7.33062 1.87688 -4.41244
thorax -9.92709 1.86312 -2.71426
lowerneck -32.3278 -2.11965 -5.90055
upperneck 22.3156 -0.69371 1.98654
head 12.7747 -0.535019 1.59777
rclavicle -2.94201e-014 5.96354e-015
rhumerus -10.8726 14.9524 -75.2418
rradius 66.0038
rwrist -17.5972
rhand -10.2774 -27.5313
rfingers 7.12502
rthumb 15.7165 -56.9131
lclavicle -2.94201e-014 5.96354e-015
lhumerus -13.4947 -28.3159 74.54
lradius 57.2067
lwrist 22.1795
lhand -23.0219 -13.4956
lfingers 7.12502
lthumb 3.42197 16.4567
rfemur -40.7636 -39.0671 14.8388
rtibia 88.7921
rfoot -12.2875 2.72872
rtoes -14.2124
lfemur -58.6567 2.13298 -21.5436
ltibia 63.4415
lfoot -13.4373 0.735664
ltoes -4.06098
164
root -17.0727 14.6295 -1.36319 -169.534 26.9252 177.926
lowerback 37.9004 2.42072 -6.6319
upperback 7.43975 2.23007 -3.93416
thorax -10.2786 2.07887 -1.83347
lowerneck -32.237 -2.27347 -5.68491
upperneck 22.0411 -0.900776 1.60279
head 12.6545 -0.65937 1.36888
rclavicle 4.77083e-015 -2.94201e-014
rhumerus -10.7232 14.8003 -75.5778
rradius 66.3232
rwrist -17.1382
rhand -10.8163 -27.3736
rfingers 7.12502
rthumb 15.1975 -56.7955
lclavicle 4.77083e-015 -2.94201e-014
lhumerus -11.815 -27.7311 73.8016
lradius 58.6552
lwrist 22.8041
lhand -23.3146 -13.8851
lfingers 7.12502
lthumb 3.13931 16.0715
rfemur -39.3096 -37.9377 12.898
rtibia 88.3535
rfoot -13.9173 0.0410183
rtoes -12.0002
lfemur -57.1619 3.80424 -21.0424
ltibia 64.0858
lfoot -14.2444 -0.0428615
ltoes -4.50541
